<svg width="724.0625px" height="314px" xmlns="http://www.w3.org/2000/svg" viewBox="-112.03125 -82 724.0625 314" style="background: rgba(0, 0, 0, 0);" preserveAspectRatio="xMidYMid"><defs><filter id="editing-extrusion" x="-100%" y="-100%" width="300%" height="300%"><feFlood result="color1" flood-color="#444"></feFlood><feConvolveMatrix order="5,5" divisor="1" kernelMatrix="1 0 0 0 0 0 1 0 0 0 0 0 1 0 0 0 0 0 1 0 0 0 0 0 1" in="SourceAlpha" result="extrude"></feConvolveMatrix><feComposite in="color1" in2="extrude" result="comp-extrude" operator="in"></feComposite><feOffset dx="2.5" dy="2.5" in="comp-extrude" result="offset-extrude"></feOffset><feMerge><feMergeNode in="offset-extrude"></feMergeNode><feMergeNode in="SourceGraphic"></feMergeNode></feMerge></filter></defs><g filter="url(#editing-extrusion)"><g transform="translate(-9.380040645599365, 122.45499801635742)"><path d="M44.35 3.17L44.35 3.17Q34.98 3.17 25.48 1.06L25.48 1.06L25.48 1.06Q16.10-1.19 10.03-5.02L10.03-5.02L10.03-5.02Q8.45-9.77 7.66-14.52L7.66-14.52L7.66-14.52Q6.86-19.27 5.68-28.12L5.68-28.12L5.68-28.51L5.68-28.51Q5.94-30.10 7.39-30.89L7.39-30.89L7.39-30.89Q12.41-27.85 17.03-26.33L17.03-26.33L17.03-26.33Q21.65-24.82 27.19-24.82L27.19-24.82L30.36-24.82L32.47-24.68L32.47-24.68Q35.51-24.68 38.68-25.61L38.68-25.61L38.68-25.61Q40.39-26.27 41.05-28.12L41.05-28.12L34.06-31.55L34.06-31.55Q26.00-35.38 19.54-39.73L19.54-39.73L19.54-39.73Q12.80-44.62 9.90-52.14L9.90-52.14L9.90-52.14Q8.45-56.23 8.45-61.12L8.45-61.12L8.45-61.12Q8.45-73.00 15.71-80.26L15.71-80.26L15.71-80.26Q22.04-86.72 32.87-89.50L32.87-89.50L32.87-89.50Q42.24-91.74 53.46-91.74L53.46-91.74L53.46-91.74Q60.06-91.74 71.68-90.29L71.68-90.29L71.68-90.29Q72.86-90.02 74.98-89.76L74.98-89.76L78.94-88.97L78.94-88.97Q83.42-88.18 85.54-88.18L85.54-88.18L85.54-88.18Q85.67-88.18 86.00-87.78L86.00-87.78L86.00-87.78Q86.33-87.38 86.59-87.12L86.59-87.12L86.59-87.12Q87.12-86.20 87.65-86.20L87.65-86.20L87.78-86.20L87.91-86.20L88.18-83.42L88.18-83.42Q88.18-81.44 88.57-79.20L88.57-79.20L88.57-79.20Q88.97-75.90 88.97-72.07L88.97-72.07L88.97-72.07Q88.97-68.77 88.57-67.32L88.57-67.32L88.57-67.32Q87.91-64.68 86.20-63.49L86.20-63.49L73.92-65.08L72.60-65.08L70.75-65.08L70.75-65.08Q66.26-65.08 60.46-64.15L60.46-64.15L56.10-63.23L56.10-63.23Q54.52-62.96 54.52-62.70L54.52-62.70L54.52-62.70Q54.52-59.53 58.61-56.76L58.61-56.76L58.61-56.76Q60.59-55.70 62.57-54.98L62.57-54.98L62.57-54.98Q64.55-54.25 65.08-53.99L65.08-53.99L65.08-53.99Q74.84-51.22 81.97-44.35L81.97-44.35L81.97-44.35Q85.27-41.18 87.12-37.62L87.12-37.62L87.12-37.62Q88.97-34.06 88.97-30.76L88.97-30.76L88.97-30.76Q88.97-28.78 88.44-26.53L88.44-26.53L88.44-26.53Q87.52-16.63 80.92-9.37L80.92-9.37L80.92-9.37Q74.45-2.90 64.68 0.13L64.68 0.13L64.68 0.13Q56.23 3.17 44.35 3.17L44.35 3.17ZM148.37 3.17L148.37 3.17Q139.66 3.17 133.85 2.38L133.85 2.38L133.85 2.38Q126.32 1.32 120.25-1.45L120.25-1.45L120.25-1.45Q119.46-1.85 117.94-2.71L117.94-2.71L117.94-2.71Q116.42-3.56 115.37-4.36L115.37-4.36L115.37-4.36Q111.01-8.05 108.24-12.67L108.24-12.67L108.24-12.67Q106.00-15.05 104.15-19.27L104.15-19.27L104.15-19.27Q100.58-28.51 100.58-41.32L100.58-41.32L100.58-41.32Q100.58-56.36 106.79-67.72L106.79-67.72L106.79-67.72Q112.20-78.54 121.24-84.68L121.24-84.68L121.24-84.68Q130.28-90.82 141.77-91.61L141.77-91.61L143.35-91.74L145.07-91.74L145.07-91.74Q155.36-91.74 167.24-87.52L167.24-87.52L167.24-87.52Q168.30-86.99 171.86-85.40L171.86-85.40L171.86-85.40Q175.43-83.82 178.46-81.84L178.46-81.84L176.09-64.68L168.30-66.66L168.30-66.66Q164.08-67.72 160.38-67.72L160.38-67.72L160.38-67.72Q152.99-67.72 149.29-62.17L149.29-62.17L149.29-62.17Q145.33-56.36 145.33-43.30L145.33-43.30L145.33-43.30Q145.33-39.07 145.73-37.36L145.73-37.36L145.73-37.36Q146.26-29.04 149.42-25.08L149.42-25.08L149.42-25.08Q152.46-21.65 156.68-21.65L156.68-21.65L156.68-21.65Q160.64-21.65 165.53-24.16L165.53-24.16L165.53-24.16Q169.75-26.14 174.77-29.57L174.77-29.57L176.09-7.92L176.09-7.92Q170.94-3.17 162.89 0.13L162.89 0.13L162.89 0.13Q155.23 3.17 148.37 3.17L148.37 3.17ZM196.02 0.13L196.02 0.13Q195.10 0.13 194.30-0.59L194.30-0.59L194.30-0.59Q193.51-1.32 193.12-2.51L193.12-2.51L193.12-2.51Q192.59-4.88 192.32-7.79L192.32-7.79L192.32-7.79Q192.19-8.71 192.19-10.30L192.19-10.30L192.19-12.01L192.32-28.38L192.32-28.38Q192.32-36.70 192.72-44.75L192.72-44.75L192.72-86.46L192.72-86.46Q192.72-87.78 194.44-87.78L194.44-87.78L194.44-87.78Q203.54-87.78 208.03-87.91L208.03-87.91L221.23-87.91L221.23-87.91Q221.63-87.91 221.89-88.04L221.89-88.04L221.89-88.04Q222.16-88.18 222.55-88.18L222.55-88.18L222.55-88.18Q224.27-88.44 227.30-88.31L227.30-88.31L227.30-88.31Q229.55-88.31 232.06-87.91L232.06-87.91L232.06-87.91Q232.85-87.38 233.24-87.65L233.24-87.65L233.24-87.65Q233.51-87.65 234.30-87.91L234.30-87.91L234.30-87.91Q236.28-87.91 237.40-87.65L237.40-87.65L237.40-87.65Q238.52-87.38 239.18-86.46L239.18-86.46L239.18-86.46Q239.84-85.27 240.24-83.56L240.24-83.56L240.24-83.56Q240.37-82.24 240.37-78.01L240.37-78.01L240.37-52.27L240.37-50.29L240.37-50.29Q240.24-49.24 240.24-45.54L240.24-45.54L240.24-45.54Q240.24-41.58 239.98-39.34L239.98-39.34L239.84-33.40L239.84-33.40Q239.71-31.42 239.71-28.38L239.71-28.38L239.58-26.27L239.58-17.82L239.58-17.82Q239.58-9.90 238.92-4.36L238.92-4.36L238.92-4.36Q238.92-2.51 238.00-0.66L238.00-0.66L238.00-0.66Q235.62-0.66 231.13-0.40L231.13-0.40L231.13-0.40Q229.02-0.40 228.36-0.13L228.36-0.13L227.04-0.13L226.64-0.13L226.64-0.13Q225.72-0.13 225.72-0.40L225.72-0.40L225.72-0.40Q224.66-0.66 224.53-0.66L224.53-0.66L223.48-0.13L211.33-0.13L211.33-0.13Q211.20 0 209.22 0L209.22 0L204.20 0L199.32 0L196.02 0.13ZM262.68-25.74L262.68-25.74Q258.59-25.48 256.34-27.06L256.34-27.06L256.34-27.06Q255.42-27.85 255.42-29.57L255.42-29.57L255.42-39.34L255.42-39.34Q255.42-42.11 255.29-43.56L255.29-43.56L255.16-48.97L255.16-48.97Q255.16-50.16 256.34-51.35L256.34-51.35L256.34-51.35Q257.53-52.54 258.72-52.54L258.72-52.54L258.72-52.54Q262.68-52.54 264.66-52.67L264.66-52.67L264.66-52.67Q268.09-52.93 270.60-52.93L270.60-52.93L282.74-52.93L282.74-52.93Q285.38-52.93 288.82-52.67L288.82-52.67L288.82-52.67Q290.53-52.54 294.49-52.54L294.49-52.54L294.49-52.54Q297.26-52.54 299.90-51.88L299.90-51.88L299.90-51.88Q302.68-51.08 302.68-48.84L302.68-48.84L302.68-48.84Q302.68-44.88 302.41-40.39L302.41-40.39L302.41-40.39Q302.41-38.15 302.28-37.09L302.28-37.09L302.28-33.40L302.28-33.40Q302.28-31.28 302.08-30.16L302.08-30.16L302.08-30.16Q301.88-29.04 301.22-28.12L301.22-28.12L301.22-28.12Q300.04-26.14 295.42-26.14L295.42-26.14L294.49-25.87L294.49-25.87Q294.10-25.74 293.30-25.74L293.30-25.74L266.77-25.74L262.68-25.74ZM354.16 3.17L354.16 3.17Q344.78 3.17 335.28 1.06L335.28 1.06L335.28 1.06Q325.91-1.19 319.84-5.02L319.84-5.02L319.84-5.02Q318.25-9.77 317.46-14.52L317.46-14.52L317.46-14.52Q316.67-19.27 315.48-28.12L315.48-28.12L315.48-28.51L315.48-28.51Q315.74-30.10 317.20-30.89L317.20-30.89L317.20-30.89Q322.21-27.85 326.83-26.33L326.83-26.33L326.83-26.33Q331.45-24.82 337.00-24.82L337.00-24.82L340.16-24.82L342.28-24.68L342.28-24.68Q345.31-24.68 348.48-25.61L348.48-25.61L348.48-25.61Q350.20-26.27 350.86-28.12L350.86-28.12L343.86-31.55L343.86-31.55Q335.81-35.38 329.34-39.73L329.34-39.73L329.34-39.73Q322.61-44.62 319.70-52.14L319.70-52.14L319.70-52.14Q318.25-56.23 318.25-61.12L318.25-61.12L318.25-61.12Q318.25-73.00 325.51-80.26L325.51-80.26L325.51-80.26Q331.85-86.72 342.67-89.50L342.67-89.50L342.67-89.50Q352.04-91.74 363.26-91.74L363.26-91.74L363.26-91.74Q369.86-91.74 381.48-90.29L381.48-90.29L381.48-90.29Q382.67-90.02 384.78-89.76L384.78-89.76L388.74-88.97L388.74-88.97Q393.23-88.18 395.34-88.18L395.34-88.18L395.34-88.18Q395.47-88.18 395.80-87.78L395.80-87.78L395.80-87.78Q396.13-87.38 396.40-87.12L396.40-87.12L396.40-87.12Q396.92-86.20 397.45-86.20L397.45-86.20L397.58-86.20L397.72-86.20L397.98-83.42L397.98-83.42Q397.98-81.44 398.38-79.20L398.38-79.20L398.38-79.20Q398.77-75.90 398.77-72.07L398.77-72.07L398.77-72.07Q398.77-68.77 398.38-67.32L398.38-67.32L398.38-67.32Q397.72-64.68 396-63.49L396-63.49L383.72-65.08L382.40-65.08L380.56-65.08L380.56-65.08Q376.07-65.08 370.26-64.15L370.26-64.15L365.90-63.23L365.90-63.23Q364.32-62.96 364.32-62.70L364.32-62.70L364.32-62.70Q364.32-59.53 368.41-56.76L368.41-56.76L368.41-56.76Q370.39-55.70 372.37-54.98L372.37-54.98L372.37-54.98Q374.35-54.25 374.88-53.99L374.88-53.99L374.88-53.99Q384.65-51.22 391.78-44.35L391.78-44.35L391.78-44.35Q395.08-41.18 396.92-37.62L396.92-37.62L396.92-37.62Q398.77-34.06 398.77-30.76L398.77-30.76L398.77-30.76Q398.77-28.78 398.24-26.53L398.24-26.53L398.24-26.53Q397.32-16.63 390.72-9.37L390.72-9.37L390.72-9.37Q384.25-2.90 374.48 0.13L374.48 0.13L374.48 0.13Q366.04 3.17 354.16 3.17L354.16 3.17ZM482.59 2.38L480.74 1.06L480.74 1.06Q479.95 0.13 479.95 0L479.95 0L466.09-15.97L466.09-15.97Q465.70-16.37 464.77-17.56L464.77-17.56L464.77-17.56Q463.85-18.74 463.06-19.54L463.06-19.54L461.08-21.52L461.08-21.52Q460.15-22.18 459.89-22.18L459.89-22.18L459.89-22.18Q459.36-22.18 459.10-21.85L459.10-21.85L459.10-21.85Q458.83-21.52 458.83-21.12L458.83-21.12L458.83-19.27L458.83-16.37L458.83-16.37Q458.83-14.26 458.57-13.07L458.57-13.07L458.57-9.64L458.57-9.64Q458.44-8.45 458.44-6.73L458.44-6.73L458.44-5.02L458.44-3.04L458.44-2.51L458.44-2.51Q458.44-1.19 457.51-1.06L457.51-1.06L457.51-1.06Q456.85-0.53 455.53-0.79L455.53-0.79L455.53-0.79Q448.67-0.53 445.63-0.53L445.63-0.53L428.74-0.66L426.49-0.66L423.85-0.66L423.85-0.66Q422.14-0.66 421.48-0.79L421.48-0.79L420.55-0.79L414.61-1.32L414.22-2.38L414.22-2.38Q414.08-2.38 414.08-3.83L414.08-3.83L414.08-3.83Q414.08-6.07 413.95-7.66L413.95-7.66L413.95-12.94L413.95-12.94Q413.69-14.92 413.69-18.88L413.69-18.88L413.42-29.04L413.42-29.04Q413.29-32.34 412.76-38.94L412.76-38.94L412.63-42.24L412.63-42.24Q412.37-46.73 412.37-48.84L412.37-48.84L412.37-50.16L412.37-50.16Q412.63-50.95 412.63-52.54L412.63-52.54L412.63-52.54Q412.76-54.25 412.76-56.50L412.76-56.50L412.63-59.14L412.63-59.14Q412.63-60.06 412.50-60.65L412.50-60.65L412.50-60.65Q412.37-61.25 412.37-61.51L412.37-61.51L412.37-61.51Q412.37-61.78 412.50-63.10L412.50-63.10L412.50-63.10Q412.63-64.42 412.63-65.74L412.63-65.74L412.63-65.74Q412.76-67.32 412.76-69.70L412.76-69.70L412.76-71.68L412.76-74.32L412.76-74.32Q412.63-76.56 412.63-80.92L412.63-80.92L412.63-80.92Q412.37-81.84 412.37-83.56L412.37-83.56L412.37-84.88L412.37-84.88Q411.97-87.91 415.54-88.44L415.54-88.44L415.54-88.44Q416.59-88.84 418.57-88.84L418.57-88.84L421.48-88.84L436.13-88.84L446.95-88.84L453.95-88.84L458.17-88.84L458.17-88.84Q460.02-88.84 460.42-86.59L460.42-86.59L460.42-86.59Q460.55-86.20 460.55-84.88L460.55-84.88L460.55-82.90L460.55-82.90Q460.55-79.60 460.28-73.00L460.28-73.00L460.15-69.43L460.15-69.43Q459.89-66 459.89-64.68L459.89-64.68L459.89-64.68Q461.47-64.68 462.79-65.47L462.79-65.47L462.79-65.47Q463.72-66.40 463.72-66.40L463.72-66.40L463.72-66.40Q463.98-66.53 464.31-66.86L464.31-66.86L464.31-66.86Q464.64-67.19 464.90-67.45L464.90-67.45L464.90-67.45Q465.43-67.72 467.41-69.70L467.41-69.70L467.41-69.70Q470.71-73.00 478.24-79.86L478.24-79.86L478.24-79.86Q485.50-86.72 489.59-89.89L489.59-89.89L489.59-89.89Q492.10-91.61 492.76-91.74L492.76-91.74L492.76-91.74Q493.02-91.74 493.68-91.08L493.68-91.08L493.68-91.08Q494.34-90.42 494.60-90.16L494.60-90.16L494.60-90.16Q494.60-90.16 495.79-88.97L495.79-88.97L495.79-88.97Q496.06-88.31 496.45-88.18L496.45-88.18L497.24-87.25L497.24-87.25Q498.43-86.33 498.83-85.67L498.83-85.67L500.41-84.22L500.41-84.22Q500.81-83.82 501.07-83.49L501.07-83.49L501.07-83.49Q501.34-83.16 501.47-83.03L501.47-83.03L501.47-83.03Q502.26-81.71 505.69-77.35L505.69-77.35L505.69-77.35Q508.33-74.32 509.65-71.41L509.65-71.41L509.65-71.15L509.65-71.15Q509.65-69.30 505.96-65.34L505.96-65.34L503.05-62.44L503.05-62.44Q501.47-60.98 500.81-60.19L500.81-60.19L500.81-60.19Q500.68-60.19 500.41-59.93L500.41-59.93L500.41-59.93Q500.15-59.66 499.75-59.27L499.75-59.27L494.47-55.18L494.47-55.18Q494.47-55.18 491.83-52.54L491.83-52.54L489.46-50.69L489.46-50.69Q489.19-50.56 488.47-49.96L488.47-49.96L488.47-49.96Q487.74-49.37 487.21-49.24L487.21-49.24L487.21-49.24Q486.82-48.97 486.29-48.64L486.29-48.64L486.29-48.64Q485.76-48.31 485.63-48.05L485.63-48.05L485.63-48.05Q485.36-47.92 485.36-46.86L485.36-46.86L485.36-46.86Q485.36-44.75 487.48-42.90L487.48-42.90L487.48-42.90Q488.40-41.84 489.32-41.32L489.32-41.32L491.17-39.73L491.17-39.73Q493.94-36.96 493.94-36.96L493.94-36.96L493.94-36.96Q496.58-34.72 503.45-28.38L503.45-28.38L503.45-28.38Q508.73-23.63 511.76-19.80L511.76-19.80L511.76-19.80Q513.08-17.82 513.08-16.90L513.08-16.90L513.08-16.90Q513.08-16.10 512.89-15.58L512.89-15.58L512.89-15.58Q512.69-15.05 512.03-14.39L512.03-14.39L512.03-14.39Q509.39-12.14 507.14-11.09L507.14-11.09L507.14-11.09Q504.90-9.90 502.79-8.12L502.79-8.12L502.79-8.12Q500.68-6.34 498.70-4.62L498.70-4.62L498.70-4.62Q496.98-3.04 494.74-1.72L494.74-1.72L492.10-0.40L492.10-0.40Q492.10-0.40 490.91 0.40L490.91 0.40L490.91 0.40Q489.72 1.19 489.19 1.72L489.19 1.72L489.19 1.72Q487.21 2.90 485.10 2.90L485.10 2.90L485.10 2.90Q483.91 2.90 482.59 2.38L482.59 2.38Z" fill="#ccc"></path></g></g><style>text {
  font-size: 64px;
  font-family: Arial Black;
  dominant-baseline: central;
  text-anchor: middle;
}</style></svg>